<svg id="Layer_1" data-name="Layer 1" xmlns="http://www.w3.org/2000/svg" viewBox="0 0 1135.91 197.24"><defs><style>.cls-1{fill:#09b781;}.cls-2{fill:#002333;}</style></defs><path class="cls-1" d="M184.76,142.74A18.84,18.84,0,1,0,158.19,116a18.84,18.84,0,0,0,26.57,26.71Z"/><path class="cls-1" d="M57,193.34a18.84,18.84,0,1,0,.2-26.7A18.76,18.76,0,0,0,57,193.34Z"/><path class="cls-1" d="M6.63,64.65a18.84,18.84,0,1,0,26.71.2A19,19,0,0,0,6.63,64.65Z"/><path class="cls-1" d="M135.16,14.8a18.84,18.84,0,1,0-26.71,26.57A18.84,18.84,0,0,0,135.16,14.8Z"/><path class="cls-1" d="M176.41,72.33a18,18,0,0,0,5-13.71v-.14c-1.08-15.47-20-22.37-30.77-11.24L133.13,65.58c-5.6,5.77-18.71,6.84-25.56.19L64.45,23.46a17.93,17.93,0,0,0-13-5.25C35.5,18.46,27.8,37.9,39.27,49L57.43,66c6.62,7,6.1,19.48.39,25.37L15.47,135.14a17.93,17.93,0,0,0-5.06,12.55v.41c.06,16.08,19.62,24,30.82,12.42l17.6-18.22c6.12-6.32,19.06-6.58,25.67-.17L127.43,184a17.89,17.89,0,0,0,13.29,5.05h.06c15.71-.71,23-19.85,11.68-30.81l-17.34-17c-6.43-6.24-7.09-18.46-.43-25.33Zm-66.34,45.41A19.81,19.81,0,0,1,82.13,89.66a19.81,19.81,0,1,1,27.94,28.08Z"/><path class="cls-2" d="M258.57,88.15l1,65.24-21.3.33-1.53-100,21.9-.33,47.3,62.13-1-62.84,21.3-.33,1.53,100-20.55.31Z"/><path class="cls-2" d="M375.87,77.36c21.6-.33,36.54,15.64,36.9,39.34l.07,4.2-53.84.82c1.34,9.13,8.8,16.67,21.1,16.48,6.75-.11,14.66-2.93,19.24-7.5l8.58,12.17c-7.1,6.71-18.44,10.34-29.69,10.51-22.05.34-38.92-14.26-39.27-37.5C338.63,94.88,353.82,77.7,375.87,77.36ZM358.5,108.83l35.69-.55c-.55-6.89-5.49-16-18.09-15.77C364.25,92.69,359.29,101.61,358.5,108.83Z"/><path class="cls-2" d="M452.07,126,435.8,150.7l-21.15.32,25.08-37.58L415,78.56l21.3-.32,15.34,22.11,14.51-22.57,21.29-.33-23.76,35.62,26.52,36.8-21.3.32Z"/><path class="cls-2" d="M545.44,139.87a33.88,33.88,0,0,1-25.33,11.34c-15.89.24-23.53-8.34-23.74-22.44l-.79-51.44L514.63,77,515.3,121c.15,10,5.45,13.27,13.55,13.15a21.33,21.33,0,0,0,16.37-8.5l-.74-49,19-.29,1.11,72.44-19,.29Z"/><path class="cls-2" d="M582.13,125.66c5.33,4.87,16.2,9.66,25.2,9.52,8.25-.13,12.1-3.49,12-8-.08-4.94-6.7-6.19-14.67-7.57-12.48-2.21-28.58-5.12-28.85-22.51-.18-12.15,10.3-23,29.35-23.25a46.27,46.27,0,0,1,29.4,9.45l-7.45,13.16c-4.42-4.58-12.73-8.2-21.58-8.07-6.9.11-11.35,3.33-11.28,7.38.06,4.2,5.78,5.31,13.9,6.83,12.49,2.21,29.19,5.41,29.46,23.56.2,13.19-10.89,23.41-31,23.72-12.6.19-24.81-3.82-32.56-10.75Z"/><path class="cls-2" d="M770.83,75.53,743.71,146l-9.3.14L705.14,76.53l1.07,70-21.3.33-1.52-100,29.84-.45,25.22,60.06,23.37-60.81,30-.45,1.53,100-21.45.33Z"/><path class="cls-2" d="M858.45,135.09a33.88,33.88,0,0,1-25.33,11.34c-15.89.24-23.53-8.34-23.74-22.44l-.79-51.44,19-.29.67,43.94c.15,10,5.45,13.27,13.55,13.15a21.3,21.3,0,0,0,16.37-8.5l-.74-49,19-.29L877.64,144l-19,.29Z"/><path class="cls-2" d="M897,125.66l-.57-37.8-12,.18-.26-16.64,12-.19-.3-19.79,19.2-.3.3,19.8,14.7-.22.25,16.64-14.7.23.5,32.69c.07,4.5,2.52,7.91,6.72,7.85,2.85,0,5.54-1.13,6.57-2.2l4.27,14.34c-2.81,2.59-7.88,4.77-15.83,4.89C904.51,145.34,897.21,138.55,897,125.66Z"/><path class="cls-2" d="M990,133.09a33.93,33.93,0,0,1-25.33,11.33c-15.9.25-23.53-8.34-23.75-22.44l-.78-51.44,19-.29.67,43.94c.16,10,5.46,13.27,13.56,13.15a21.32,21.32,0,0,0,16.37-8.5l-.75-49,19.05-.29,1.1,72.43-19,.29Z"/><path class="cls-2" d="M1068.45,133.54c-4.86,5.92-13.35,9.5-22.8,9.65-11.55.17-25.32-7.42-25.57-23.61-.25-17,13.3-23.31,24.85-23.49,9.6-.14,18.19,2.73,23.08,8.5l-.15-10c-.12-7.34-6.49-12.05-16.09-11.9a30.48,30.48,0,0,0-21,8.87l-7.4-12.64c8.73-7.93,20.08-11.7,31.47-11.88,16.5-.25,31.75,6.12,32.07,27l.71,46.8-19,.29Zm-.29-18.9c-3.21-4.15-9.24-6.16-15.39-6.06-7.5.11-13.59,4.1-13.48,11.15.1,6.75,6.31,10.56,13.81,10.44,6.15-.09,12.11-2.28,15.2-6.53Z"/><path class="cls-2" d="M1102,40.47l19-.29,1.53,100-19,.29Z"/></svg>